<?xml version="1.0" encoding="UTF-8"?>
<svg width="121px" height="121px" viewBox="0 0 121 121" version="1.1" xmlns="http://www.w3.org/2000/svg" xmlns:xlink="http://www.w3.org/1999/xlink">
    <title>icon_start@2x</title>
    <g id="-1" stroke="none" stroke-width="1" fill="none" fill-rule="evenodd">
        <g id="-Level-1-more" transform="translate(-123.000000, -595.000000)">
            <g id="icon_start" transform="translate(123.000000, 595.000000)">
                <g id="3" transform="translate(43.106167, 32.073844)">
                    <path d="M26.2469033,11.012334 L47.6222672,45.3016089 C48.7909283,47.1763159 48.2185651,49.6434532 46.3438581,50.8121143 C45.7017189,51.2124133 44.9592064,51.4223595 44.20253,51.4175772 L1.58803629,51.1482487 C-0.621058586,51.134287 -2.4005656,49.3321435 -2.38660386,47.1230486 C-2.38192444,46.3826464 -2.17183297,45.6580727 -1.77972263,45.0300068 L19.4594072,11.0100604 C20.629324,9.13613677 23.0968442,8.56542648 24.9707678,9.7353433 C25.4879014,10.058197 25.9243961,10.4949842 26.2469033,11.012334 Z" fill="#E97500" transform="translate(22.946144, 28.517323) rotate(90.000000) translate(-22.946144, -28.517323) "></path>
                    <path d="M25.7904727,13.3874191 L44.0921294,42.813612 C45.2588551,44.6895241 44.6839461,47.1560694 42.808034,48.3227952 C42.1739714,48.7171512 41.4421842,48.926156 40.6954901,48.926156 L4.09217689,48.926156 C1.88303789,48.926156 0.0921768928,47.135295 0.0921768928,44.926156 C0.0921768928,44.1794619 0.301181636,43.4476746 0.695537645,42.813612 L18.9971943,13.3874191 C20.16392,11.511507 22.6304654,10.9365979 24.5063774,12.1033237 C25.0271959,12.4272474 25.4665491,12.8666006 25.7904727,13.3874191 Z" fill="#FFFCED" transform="translate(22.393833, 28.426156) rotate(90.000000) translate(-22.393833, -28.426156) "></path>
                </g>
            </g>
        </g>
    </g>
</svg>