<?xml version="1.0" encoding="UTF-8"?>
<svg width="121px" height="121px" viewBox="0 0 121 121" version="1.1" xmlns="http://www.w3.org/2000/svg" xmlns:xlink="http://www.w3.org/1999/xlink">
    <title>icon_ move@2x</title>
    <g id="-1" stroke="none" stroke-width="1" fill="none" fill-rule="evenodd">
        <g id="-Level-1--3" transform="translate(-124.000000, -595.000000)">
            <g id="icon_-move" transform="translate(124.000000, 595.000000)">
                <g id="11" transform="translate(38.100000, 36.172204)">
                    <path d="M26.5527973,0.760298545 C27.2375105,-0.106443336 28.4952135,-0.254006664 29.3619553,0.430706628 L29.3619553,0.430706628 L42.587856,10.8789729 C42.7026548,10.9696623 42.8071564,11.072674 42.8994848,11.1861588 C43.5965725,12.04298 43.4670831,13.302672 42.610262,13.9997598 L42.610262,13.9997598 L29.3843613,24.7600147 C29.0277029,25.0501829 28.5819579,25.2086029 28.1221723,25.2086029 C27.0176028,25.2086029 26.1221723,24.3131724 26.1221723,23.2086029 L26.1221723,23.2086029 L26.1221327,18.8 L7.01539171,18.8003317 C3.54690042,18.8003317 0.735132674,15.9885639 0.735132674,12.5200727 C0.735132674,9.05158136 3.54690042,6.23981361 7.01539171,6.23981361 L26.1221327,6.239 L26.1221723,2.00008163 C26.1221723,1.60638898 26.2383286,1.22275953 26.454216,0.896482377 Z" id="" fill="#E97500"></path>
                    <path d="M27.5437851,2.56400662 C28.2417908,1.70793317 29.5016209,1.57979396 30.3576944,2.2777997 L30.3576944,2.2777997 L40.9022322,10.8753655 C41.0070675,10.9608438 41.1029608,11.0567371 41.1884391,11.1615724 C41.8864448,12.0176459 41.7583056,13.277476 40.9022322,13.9754817 L40.9022322,13.9754817 L30.3576944,22.5730475 C30.0007769,22.8640628 29.5543646,23.0229894 29.0938432,23.0229894 C27.9892737,23.0229894 27.0938432,22.1275589 27.0938432,21.0229894 L27.0938432,21.0229894 L27.093,17.5557956 L6.9,17.5558295 C4.13857625,17.5558295 1.9,15.3172532 1.9,12.5558295 C1.9,9.79440573 4.13857625,7.55582948 6.9,7.55582948 L27.093,7.55579559 L27.0938432,3.82785782 C27.0938432,3.42490156 27.2155214,3.03274764 27.4408984,2.70189852 Z" id="" fill="#FFFCED"></path>
                    <path d="M25.8176646,24.7602981 C26.5023779,23.8935563 27.7600808,23.7459929 28.6268227,24.4307062 L28.6268227,24.4307062 L41.8527233,34.8789725 C41.9675222,34.9696619 42.0720237,35.0726736 42.1643521,35.1861584 C42.8614399,36.0429795 42.7319504,37.3026716 41.8751293,37.9997594 L41.8751293,37.9997594 L28.6492286,48.7600143 C28.2925702,49.0501825 27.8468252,49.2086025 27.3870396,49.2086025 C26.2824701,49.2086025 25.3870396,48.313172 25.3870396,47.2086025 L25.3870396,47.2086025 L25.387,42.7999996 L6.28025904,42.8003313 C2.81176775,42.8003313 4.24767676e-16,39.9885635 0,36.5200722 C-4.24767676e-16,33.0515809 2.81176775,30.2398132 6.28025904,30.2398132 L25.387,30.2389996 L25.3870396,26.0000812 C25.3870396,25.6063886 25.5031959,25.2227591 25.7190833,24.896482 Z" id="" fill="#E97500" transform="translate(21.306502, 36.604301) scale(-1, 1) translate(-21.306502, -36.604301) "></path>
                    <path d="M27.3789178,26.736211 C28.0769235,25.8801376 29.3367536,25.7519984 30.1928271,26.4500041 L30.1928271,26.4500041 L40.7373648,35.0475699 C40.8422002,35.1330482 40.9380935,35.2289415 41.0235718,35.3337768 C41.7215775,36.1898503 41.5934383,37.4496804 40.7373648,38.1476862 L40.7373648,38.1476862 L30.1928271,46.745252 C29.8359096,47.0362672 29.3894973,47.1951938 28.9289759,47.1951938 C27.8244064,47.1951938 26.9289759,46.2997633 26.9289759,45.1951938 L26.9289759,45.1951938 L26.9281327,41.728 L6.73513267,41.7280339 C3.97370892,41.7280339 1.73513267,39.4894576 1.73513267,36.7280339 C1.73513267,33.9666101 3.97370892,31.7280339 6.73513267,31.7280339 L26.9281327,31.728 L26.9289759,28.0000622 C26.9289759,27.597106 27.0506541,27.2049521 27.2760311,26.8741029 Z" id="" fill="#FFFCED" transform="translate(21.604354, 36.597597) scale(-1, 1) translate(-21.604354, -36.597597) "></path>
                </g>
            </g>
        </g>
    </g>
</svg>