<?xml version="1.0" standalone="no"?><!DOCTYPE svg PUBLIC "-//W3C//DTD SVG 1.1//EN" "http://www.w3.org/Graphics/SVG/1.1/DTD/svg11.dtd"><svg t="1642045229192" class="icon" viewBox="0 0 1024 1024" version="1.1" xmlns="http://www.w3.org/2000/svg" p-id="3064" xmlns:xlink="http://www.w3.org/1999/xlink" width="200" height="200"><defs><style type="text/css"></style></defs><path d="M512.1 188c43.5 0 85.8 8.6 125.7 25.5 38.6 16.4 73.3 39.8 103.2 69.7 29.9 29.9 53.3 64.6 69.7 103.2 16.9 39.9 25.5 82.2 25.5 125.7s-8.6 85.8-25.5 125.7c-16.4 38.6-39.8 73.3-69.7 103.2-29.9 29.9-64.6 53.3-103.2 69.7-39.9 16.9-82.2 25.5-125.7 25.5s-85.8-8.6-125.7-25.5c-38.6-16.4-73.3-39.8-103.2-69.7-29.9-29.9-53.3-64.6-69.7-103.2-16.9-39.9-25.5-82.2-25.5-125.7s8.6-85.8 25.5-125.7c16.4-38.6 39.8-73.3 69.7-103.2 29.9-29.9 64.6-53.3 103.2-69.7 39.9-16.9 82.2-25.5 125.7-25.5m0-60C300.9 128 128 300.8 128 512.1c0 211.2 172.8 384.1 384.1 384.1 211.2 0 384.1-172.8 384.1-384.1S723.3 128 512.1 128z" p-id="3065" fill="#4eaf08"></path><path d="M737.6 372.9c-11.4-11.4-32-11.5-44.2-0.2l-0.1 0.1-211.2 210.5-117.6-117.6c-5.4-5.4-14-8.8-21.9-8.8-7.9 0-16.5 3.5-21.9 8.8-11.4 11.4-11.5 32-0.2 44.2L460 650.1c5.4 6.2 13.4 9.7 22.1 9.7 7.7 0 15.2-2.6 21.7-7.4l0.5-0.3 234-234.6 0.2-0.2c11.4-12.6 11-32.4-0.9-44.4z" p-id="3066" fill="#4eaf08"></path></svg>